<svg width="17" height="21" viewBox="0 0 17 21" fill="none" xmlns="http://www.w3.org/2000/svg">
<path d="M13.935 0.599609L16.819 3.49272L16.8079 3.50337L13.9595 3.50552L13.9329 0.601758L13.935 0.599609Z" fill="#F1F1F1"/>
<path d="M6.19272 5.16641C6.19272 5.71533 5.88608 5.97461 5.41542 5.9709C5.35102 5.9709 5.2791 5.9709 5.23495 5.96079V4.45776C5.2791 4.44766 5.35419 4.43701 5.47026 4.43701C5.9164 4.43706 6.19594 4.6894 6.19272 5.16641Z" fill="#F1F1F1"/>
<path d="M3.86772 4.76768C3.86772 5.00298 3.69731 5.14302 3.42157 5.14302C3.34648 5.14302 3.29164 5.13931 3.24745 5.1292V4.45088C3.28524 4.44077 3.35658 4.43066 3.462 4.43066C3.72128 4.43066 3.86772 4.5563 3.86772 4.76768Z" fill="#F1F1F1"/>
<path d="M2.13525 2.62012H11.0797V7.78447H2.13525H2.11342H0.218552V2.62012H2.11338H2.13525Z" fill="#F1F1F1"/>
<path d="M9.72958 10.451C9.73593 10.9871 9.39306 12.0333 9.39306 12.0333C9.2748 11.9087 9.03842 11.2421 9.03842 10.6255C9.03842 10.009 9.23759 9.84082 9.39306 9.84082C9.54902 9.84082 9.72309 9.91538 9.72958 10.451Z" fill="#DC1D00"/>
<path d="M13.4628 15.1268C13.4628 15.8349 12.1797 15.5463 11.3906 14.7951C11.3906 14.7951 13.4628 14.4192 13.4628 15.1268Z" fill="#DC1D00"/>
<path d="M6.01704 17.4587C5.38188 17.0786 7.35019 15.9078 7.70532 15.8706C7.70532 15.8706 6.68203 17.8564 6.01704 17.4587Z" fill="#DC1D00"/>
<path d="M9.69224 13.1982C10.0533 13.8707 10.7698 14.6619 10.7698 14.6619C10.7698 14.6619 10.4956 14.6928 9.8584 14.8487C9.22105 15.0047 8.90112 15.1666 8.90112 15.1666C8.90112 15.1666 8.90112 15.1666 9.16255 14.581C9.42446 13.9953 9.69224 13.1982 9.69224 13.1982Z" fill="#DC1D00"/>
<path d="M16.8297 3.50356V20.4028H2.13525V7.78467H11.0797V2.62031H2.13525V0.597168H13.9329L13.935 0.599805L13.9329 0.601904L13.9595 3.50566L16.8079 3.50352L16.8191 3.49287L16.8297 3.50356Z" fill="#DC1D00"/>
<path d="M7.70532 15.8705C7.35024 15.9078 5.38188 17.0785 6.01704 17.4587C6.68203 17.8564 7.70532 15.8705 7.70532 15.8705ZM11.3906 14.795C12.1796 15.5463 13.4628 15.8349 13.4628 15.1268C13.4628 14.4192 11.3906 14.795 11.3906 14.795ZM10.7698 14.6619C10.7698 14.6619 10.0532 13.8708 9.69223 13.1983C9.69223 13.1983 9.42446 13.9953 9.1625 14.581C8.90107 15.1666 8.90107 15.1666 8.90107 15.1666C8.90107 15.1666 9.22104 15.0048 9.85835 14.8487C10.4956 14.6928 10.7698 14.6619 10.7698 14.6619ZM9.39307 12.0334C9.39307 12.0334 9.73589 10.9873 9.72959 10.4511C9.72309 9.91555 9.54907 9.84099 9.39307 9.84099C9.2376 9.84099 9.03843 10.0092 9.03843 10.6257C9.03843 11.2423 9.2748 11.9089 9.39307 12.0334ZM9.82324 12.8432C10.172 13.5971 11.1314 14.5682 11.1314 14.5682C11.1314 14.5682 11.4423 14.4873 12.7254 14.4565C14.009 14.4256 14.065 15.1475 14.0708 15.2098C14.0772 15.2726 14.1273 15.8455 13.1056 15.8827C12.0844 15.92 11.025 14.8552 11.025 14.8552C11.025 14.8552 10.5894 14.9238 10.2284 15.0107C9.86743 15.098 8.7084 15.4158 8.7084 15.4158C8.7084 15.4158 8.36553 16.0387 7.60576 17.0349C6.84551 18.0316 5.99419 17.957 5.75137 17.6269C5.46919 17.2436 5.68696 16.8609 6.22256 16.3624C6.75815 15.8641 7.9939 15.4509 7.9939 15.4509C7.9939 15.4509 8.24306 15.0027 8.6083 14.1471C8.97348 13.2915 9.24985 12.4322 9.24985 12.4322C9.24985 12.4322 8.88833 11.6112 8.81802 10.9127C8.73926 10.1338 8.82656 9.61047 9.42446 9.60407C10.0224 9.59767 10.2092 10.0465 10.2279 10.8248C10.2465 11.6038 9.82324 12.8432 9.82324 12.8432Z" fill="white"/>
<path d="M8.45117 4.49414V4.05469H7.08398V6.34961H7.57227V5.42188H8.40234V5.03125H7.57227V4.49414H8.45117Z" fill="#A51600"/>
<path d="M6.35615 4.28354C6.13467 4.11636 5.84111 4.03809 5.40454 4.03809C5.14209 4.03809 4.88672 4.05513 4.69141 4.08599V6.34233C4.83789 6.35938 5.0228 6.37637 5.29219 6.37637C5.74209 6.37637 6.11597 6.28105 6.35767 6.07983C6.57915 5.89243 6.74214 5.58892 6.74214 5.14917C6.74214 4.74409 6.59521 4.46084 6.35615 4.28354ZM5.38779 5.97075C5.32339 5.97075 5.27734 5.97075 5.17969 5.96064V4.45762C5.27734 4.44751 5.32656 4.43687 5.44268 4.43687C5.88882 4.43687 6.16831 4.68921 6.16509 5.16626C6.16509 5.71519 5.8584 5.97446 5.38779 5.97075Z" fill="#A51600"/>
<path d="M4.13711 4.22227C3.98379 4.09927 3.73384 4.03809 3.41328 4.03809C3.09648 4.03809 2.83594 4.05884 2.68945 4.08599V6.34951H3.22656V5.53091C3.27539 5.53784 3.34614 5.54155 3.41436 5.54155C3.721 5.54155 3.98867 5.46646 4.16602 5.29932C4.3023 5.16997 4.37993 4.97881 4.37993 4.75415C4.37993 4.52895 4.2835 4.33833 4.13711 4.22227ZM3.41108 5.14282C3.33604 5.14282 3.27539 5.13911 3.22656 5.129V4.45068C3.27539 4.44058 3.34614 4.43047 3.45151 4.43047C3.71084 4.43047 3.85723 4.5561 3.85723 4.76748C3.85723 5.00278 3.68687 5.14282 3.41108 5.14282Z" fill="#A51600"/>
</svg>
